<svg xmlns="http://www.w3.org/2000/svg" viewBox="0 0 512 512" role="img" aria-label="WM 2026 Sammlung">
  <rect width="512" height="512" rx="112" fill="#f4f4f4"/>
  <path d="M0 0h256v256H0z" fill="#a56dff"/>
  <path d="M256 0h256v256H256z" fill="#e50922"/>
  <path d="M0 256h256v256H0z" fill="#ecff27"/>
  <path d="M256 256h256v256H256z" fill="#3157ff"/>
  <path d="M0 364c96 0 159-43 256-43v191H0z" fill="#ecff27"/>
  <text x="257" y="318" text-anchor="middle" fill="#050505" font-family="Arial Black, Arial, Helvetica, sans-serif" font-size="286" font-weight="900">26</text>
  <g transform="translate(256 230)">
    <ellipse cx="0" cy="118" rx="58" ry="18" fill="#5b3408" opacity="0.55"/>
    <path d="M-28 104h56l-12-56h-32z" fill="#b97916"/>
    <path d="M-50-74c6 67 24 108 50 108s44-41 50-108c-23 15-77 15-100 0z" fill="#d69b2f"/>
    <path d="M-42-84c18-28 66-28 84 0 14 22 9 48-6 66-13 15-22 30-24 52h-24c-2-22-11-37-24-52-15-18-20-44-6-66z" fill="#f2c25b"/>
    <path d="M-24-60c16-15 40-12 53 5 10 14 8 32-4 45" fill="none" stroke="#fff4b3" stroke-width="10" stroke-linecap="round" opacity="0.75"/>
    <circle cx="-16" cy="-38" r="9" fill="#b97916"/>
    <circle cx="17" cy="-16" r="8" fill="#b97916"/>
    <path d="M-58-56c-31 4-48 25-41 53 6 25 31 39 62 37" fill="none" stroke="#d69b2f" stroke-width="18" stroke-linecap="round"/>
    <path d="M58-56c31 4 48 25 41 53-6 25-31 39-62 37" fill="none" stroke="#d69b2f" stroke-width="18" stroke-linecap="round"/>
  </g>
  <rect x="176" y="376" width="160" height="46" rx="15" fill="#050505"/>
  <text x="256" y="409" text-anchor="middle" fill="#ffffff" font-family="Arial, Helvetica, sans-serif" font-size="31" font-weight="900">WM</text>
</svg>
